<?xml version="1.0" encoding="utf-8"?>
<!-- Generator: Adobe Illustrator 27.2.0, SVG Export Plug-In . SVG Version: 6.00 Build 0)  -->
<svg version="1.1"
	 id="Layer_1" image-rendering="optimizeQuality" text-rendering="geometricPrecision" shape-rendering="geometricPrecision" xmlns:xodm="http://www.corel.com/coreldraw/odm/2003"
	 xmlns="http://www.w3.org/2000/svg" xmlns:xlink="http://www.w3.org/1999/xlink" x="0px" y="0px" viewBox="0 0 512 512"
	 style="enable-background:new 0 0 512 512;" xml:space="preserve">
<style type="text/css">
	.st0{fill-rule:evenodd;clip-rule:evenodd;fill:#FFFFFF;}
</style>
<g id="Layer_x0020_1">
	<path class="st0" d="M256,0c141.4,0,256,114.6,256,256S397.4,512,256,512S0,397.4,0,256S114.6,0,256,0z M157.4,136.6l-15.6,41.5
		v166.1h57.1v31.2h31.2l31.1-31.2h46.7l62.3-62.3V136.6L157.4,136.6z M178.1,157.4h171.3v114.2l-36.3,36.3H256L224.9,339v-31.1
		h-46.7L178.1,157.4z M235.2,261.2H256v-62.3h-20.8V261.2z M292.3,261.2h20.8v-62.3h-20.8V261.2z"/>
</g>
</svg>
